<mxfile host="app.diagrams.net" modified="2023-12-19T10:18:34.048Z" agent="Mozilla/5.0 (Windows NT 10.0; Win64; x64) AppleWebKit/537.36 (KHTML, like Gecko) Chrome/120.0.0.0 Safari/537.36" etag="UIrnvjZbCYYeNtvtQScM" version="22.1.11" type="device">
  <diagram id="C5RBs43oDa-KdzZeNtuy" name="Page-1">
    <mxGraphModel dx="1116" dy="614" grid="1" gridSize="10" guides="1" tooltips="1" connect="1" arrows="1" fold="1" page="1" pageScale="1" pageWidth="827" pageHeight="1169" math="0" shadow="0">
      <root>
        <mxCell id="WIyWlLk6GJQsqaUBKTNV-0" />
        <mxCell id="WIyWlLk6GJQsqaUBKTNV-1" parent="WIyWlLk6GJQsqaUBKTNV-0" />
        <mxCell id="yXmNxzB1KpTiQ_Aq9FQd-3" style="edgeStyle=orthogonalEdgeStyle;rounded=0;orthogonalLoop=1;jettySize=auto;html=1;exitX=0.5;exitY=1;exitDx=0;exitDy=0;" edge="1" parent="WIyWlLk6GJQsqaUBKTNV-1" source="WIyWlLk6GJQsqaUBKTNV-3" target="yXmNxzB1KpTiQ_Aq9FQd-2">
          <mxGeometry relative="1" as="geometry" />
        </mxCell>
        <mxCell id="WIyWlLk6GJQsqaUBKTNV-3" value="Вставить ключ в замок зажигания" style="rounded=1;whiteSpace=wrap;html=1;fontSize=12;glass=0;strokeWidth=1;shadow=0;" parent="WIyWlLk6GJQsqaUBKTNV-1" vertex="1">
          <mxGeometry x="260" y="50" width="120" height="40" as="geometry" />
        </mxCell>
        <mxCell id="yXmNxzB1KpTiQ_Aq9FQd-21" style="edgeStyle=orthogonalEdgeStyle;rounded=0;orthogonalLoop=1;jettySize=auto;html=1;exitX=0;exitY=0.5;exitDx=0;exitDy=0;" edge="1" parent="WIyWlLk6GJQsqaUBKTNV-1" source="yXmNxzB1KpTiQ_Aq9FQd-2" target="yXmNxzB1KpTiQ_Aq9FQd-13">
          <mxGeometry relative="1" as="geometry">
            <Array as="points">
              <mxPoint x="120" y="205" />
              <mxPoint x="120" y="325" />
              <mxPoint x="325" y="325" />
            </Array>
          </mxGeometry>
        </mxCell>
        <mxCell id="yXmNxzB1KpTiQ_Aq9FQd-22" value="Да" style="edgeLabel;html=1;align=center;verticalAlign=middle;resizable=0;points=[];" vertex="1" connectable="0" parent="yXmNxzB1KpTiQ_Aq9FQd-21">
          <mxGeometry x="-0.8885" y="-3" relative="1" as="geometry">
            <mxPoint x="-6" y="3" as="offset" />
          </mxGeometry>
        </mxCell>
        <mxCell id="yXmNxzB1KpTiQ_Aq9FQd-58" style="edgeStyle=orthogonalEdgeStyle;rounded=0;orthogonalLoop=1;jettySize=auto;html=1;exitX=1;exitY=0.5;exitDx=0;exitDy=0;entryX=0.5;entryY=0;entryDx=0;entryDy=0;" edge="1" parent="WIyWlLk6GJQsqaUBKTNV-1" source="yXmNxzB1KpTiQ_Aq9FQd-2" target="yXmNxzB1KpTiQ_Aq9FQd-5">
          <mxGeometry relative="1" as="geometry" />
        </mxCell>
        <mxCell id="yXmNxzB1KpTiQ_Aq9FQd-59" value="Нет" style="edgeLabel;html=1;align=center;verticalAlign=middle;resizable=0;points=[];" vertex="1" connectable="0" parent="yXmNxzB1KpTiQ_Aq9FQd-58">
          <mxGeometry x="-0.7509" y="2" relative="1" as="geometry">
            <mxPoint x="11" y="2" as="offset" />
          </mxGeometry>
        </mxCell>
        <mxCell id="yXmNxzB1KpTiQ_Aq9FQd-2" value="&amp;nbsp;Рычаг коробки передач &lt;br&gt;располагается на позиции «P» (парковка)&lt;br&gt;&amp;nbsp;или «N» (нейтральное положение)?" style="rhombus;whiteSpace=wrap;html=1;shadow=0;fontFamily=Helvetica;fontSize=12;align=center;strokeWidth=1;spacing=6;spacingTop=-4;" vertex="1" parent="WIyWlLk6GJQsqaUBKTNV-1">
          <mxGeometry x="180" y="130" width="280" height="150" as="geometry" />
        </mxCell>
        <mxCell id="yXmNxzB1KpTiQ_Aq9FQd-20" style="edgeStyle=orthogonalEdgeStyle;rounded=0;orthogonalLoop=1;jettySize=auto;html=1;exitX=0;exitY=0.5;exitDx=0;exitDy=0;entryX=0.5;entryY=0;entryDx=0;entryDy=0;" edge="1" parent="WIyWlLk6GJQsqaUBKTNV-1" source="yXmNxzB1KpTiQ_Aq9FQd-5" target="yXmNxzB1KpTiQ_Aq9FQd-13">
          <mxGeometry relative="1" as="geometry" />
        </mxCell>
        <mxCell id="yXmNxzB1KpTiQ_Aq9FQd-5" value="Переключить на необходимую передачу" style="rounded=1;whiteSpace=wrap;html=1;fontSize=12;glass=0;strokeWidth=1;shadow=0;" vertex="1" parent="WIyWlLk6GJQsqaUBKTNV-1">
          <mxGeometry x="460" y="300" width="120" height="50" as="geometry" />
        </mxCell>
        <mxCell id="yXmNxzB1KpTiQ_Aq9FQd-26" style="edgeStyle=orthogonalEdgeStyle;rounded=0;orthogonalLoop=1;jettySize=auto;html=1;exitX=1;exitY=0.5;exitDx=0;exitDy=0;" edge="1" parent="WIyWlLk6GJQsqaUBKTNV-1" source="yXmNxzB1KpTiQ_Aq9FQd-13" target="yXmNxzB1KpTiQ_Aq9FQd-24">
          <mxGeometry relative="1" as="geometry" />
        </mxCell>
        <mxCell id="yXmNxzB1KpTiQ_Aq9FQd-36" value="Кнопка" style="edgeLabel;html=1;align=center;verticalAlign=middle;resizable=0;points=[];" vertex="1" connectable="0" parent="yXmNxzB1KpTiQ_Aq9FQd-26">
          <mxGeometry x="-0.4116" relative="1" as="geometry">
            <mxPoint as="offset" />
          </mxGeometry>
        </mxCell>
        <mxCell id="yXmNxzB1KpTiQ_Aq9FQd-35" style="edgeStyle=orthogonalEdgeStyle;rounded=0;orthogonalLoop=1;jettySize=auto;html=1;exitX=0;exitY=0.5;exitDx=0;exitDy=0;entryX=0.5;entryY=0;entryDx=0;entryDy=0;" edge="1" parent="WIyWlLk6GJQsqaUBKTNV-1" source="yXmNxzB1KpTiQ_Aq9FQd-13" target="yXmNxzB1KpTiQ_Aq9FQd-23">
          <mxGeometry relative="1" as="geometry" />
        </mxCell>
        <mxCell id="yXmNxzB1KpTiQ_Aq9FQd-37" value="Замок зажигания" style="edgeLabel;html=1;align=center;verticalAlign=middle;resizable=0;points=[];" vertex="1" connectable="0" parent="yXmNxzB1KpTiQ_Aq9FQd-35">
          <mxGeometry x="-0.5487" relative="1" as="geometry">
            <mxPoint x="5" as="offset" />
          </mxGeometry>
        </mxCell>
        <mxCell id="yXmNxzB1KpTiQ_Aq9FQd-13" value="У автомобиля &lt;br&gt;замок зажигания&lt;br&gt;&amp;nbsp;или кнопка?" style="rhombus;whiteSpace=wrap;html=1;shadow=0;fontFamily=Helvetica;fontSize=12;align=center;strokeWidth=1;spacing=6;spacingTop=-4;" vertex="1" parent="WIyWlLk6GJQsqaUBKTNV-1">
          <mxGeometry x="240" y="370" width="170" height="100" as="geometry" />
        </mxCell>
        <mxCell id="yXmNxzB1KpTiQ_Aq9FQd-41" style="edgeStyle=orthogonalEdgeStyle;rounded=0;orthogonalLoop=1;jettySize=auto;html=1;exitX=0.5;exitY=1;exitDx=0;exitDy=0;entryX=0.5;entryY=0;entryDx=0;entryDy=0;" edge="1" parent="WIyWlLk6GJQsqaUBKTNV-1" source="yXmNxzB1KpTiQ_Aq9FQd-23" target="yXmNxzB1KpTiQ_Aq9FQd-39">
          <mxGeometry relative="1" as="geometry" />
        </mxCell>
        <mxCell id="yXmNxzB1KpTiQ_Aq9FQd-23" value="Повернуть ключ в замке зажигания до крайнего положения одновременно с нажатием педали тормоза" style="rounded=1;whiteSpace=wrap;html=1;fontSize=12;glass=0;strokeWidth=1;shadow=0;" vertex="1" parent="WIyWlLk6GJQsqaUBKTNV-1">
          <mxGeometry x="40" y="593" width="170" height="77" as="geometry" />
        </mxCell>
        <mxCell id="yXmNxzB1KpTiQ_Aq9FQd-29" style="edgeStyle=orthogonalEdgeStyle;rounded=0;orthogonalLoop=1;jettySize=auto;html=1;exitX=0;exitY=0.5;exitDx=0;exitDy=0;entryX=0.5;entryY=0;entryDx=0;entryDy=0;" edge="1" parent="WIyWlLk6GJQsqaUBKTNV-1" source="yXmNxzB1KpTiQ_Aq9FQd-24" target="yXmNxzB1KpTiQ_Aq9FQd-27">
          <mxGeometry relative="1" as="geometry" />
        </mxCell>
        <mxCell id="yXmNxzB1KpTiQ_Aq9FQd-30" value="Да&lt;br&gt;" style="edgeLabel;html=1;align=center;verticalAlign=middle;resizable=0;points=[];" vertex="1" connectable="0" parent="yXmNxzB1KpTiQ_Aq9FQd-29">
          <mxGeometry x="-0.756" relative="1" as="geometry">
            <mxPoint as="offset" />
          </mxGeometry>
        </mxCell>
        <mxCell id="yXmNxzB1KpTiQ_Aq9FQd-32" style="edgeStyle=orthogonalEdgeStyle;rounded=0;orthogonalLoop=1;jettySize=auto;html=1;exitX=1;exitY=0.5;exitDx=0;exitDy=0;entryX=0.5;entryY=0;entryDx=0;entryDy=0;" edge="1" parent="WIyWlLk6GJQsqaUBKTNV-1" source="yXmNxzB1KpTiQ_Aq9FQd-24" target="yXmNxzB1KpTiQ_Aq9FQd-28">
          <mxGeometry relative="1" as="geometry" />
        </mxCell>
        <mxCell id="yXmNxzB1KpTiQ_Aq9FQd-33" value="Нет&lt;br&gt;" style="edgeLabel;html=1;align=center;verticalAlign=middle;resizable=0;points=[];" vertex="1" connectable="0" parent="yXmNxzB1KpTiQ_Aq9FQd-32">
          <mxGeometry x="-0.7978" y="-2" relative="1" as="geometry">
            <mxPoint y="-2" as="offset" />
          </mxGeometry>
        </mxCell>
        <mxCell id="yXmNxzB1KpTiQ_Aq9FQd-24" value="Ключи от автомобиля&lt;br&gt;&amp;nbsp;в салоне?" style="rhombus;whiteSpace=wrap;html=1;" vertex="1" parent="WIyWlLk6GJQsqaUBKTNV-1">
          <mxGeometry x="422" y="480" width="196" height="90" as="geometry" />
        </mxCell>
        <mxCell id="yXmNxzB1KpTiQ_Aq9FQd-40" style="edgeStyle=orthogonalEdgeStyle;rounded=0;orthogonalLoop=1;jettySize=auto;html=1;exitX=0.5;exitY=1;exitDx=0;exitDy=0;" edge="1" parent="WIyWlLk6GJQsqaUBKTNV-1" source="yXmNxzB1KpTiQ_Aq9FQd-27" target="yXmNxzB1KpTiQ_Aq9FQd-39">
          <mxGeometry relative="1" as="geometry" />
        </mxCell>
        <mxCell id="yXmNxzB1KpTiQ_Aq9FQd-27" value="Зажать кнопку одновременно с нажатием педали тормоза." style="rounded=1;whiteSpace=wrap;html=1;fontSize=12;glass=0;strokeWidth=1;shadow=0;" vertex="1" parent="WIyWlLk6GJQsqaUBKTNV-1">
          <mxGeometry x="300" y="610" width="160" height="60" as="geometry" />
        </mxCell>
        <mxCell id="yXmNxzB1KpTiQ_Aq9FQd-34" style="edgeStyle=orthogonalEdgeStyle;rounded=0;orthogonalLoop=1;jettySize=auto;html=1;exitX=0;exitY=0.5;exitDx=0;exitDy=0;entryX=1;entryY=0.5;entryDx=0;entryDy=0;" edge="1" parent="WIyWlLk6GJQsqaUBKTNV-1" source="yXmNxzB1KpTiQ_Aq9FQd-28" target="yXmNxzB1KpTiQ_Aq9FQd-27">
          <mxGeometry relative="1" as="geometry" />
        </mxCell>
        <mxCell id="yXmNxzB1KpTiQ_Aq9FQd-28" value="Взять ключи в салон" style="rounded=1;whiteSpace=wrap;html=1;fontSize=12;glass=0;strokeWidth=1;shadow=0;" vertex="1" parent="WIyWlLk6GJQsqaUBKTNV-1">
          <mxGeometry x="580" y="610" width="140" height="60" as="geometry" />
        </mxCell>
        <mxCell id="yXmNxzB1KpTiQ_Aq9FQd-45" style="edgeStyle=orthogonalEdgeStyle;rounded=0;orthogonalLoop=1;jettySize=auto;html=1;exitX=0.5;exitY=1;exitDx=0;exitDy=0;entryX=0.5;entryY=0;entryDx=0;entryDy=0;" edge="1" parent="WIyWlLk6GJQsqaUBKTNV-1" source="yXmNxzB1KpTiQ_Aq9FQd-39" target="yXmNxzB1KpTiQ_Aq9FQd-42">
          <mxGeometry relative="1" as="geometry" />
        </mxCell>
        <mxCell id="yXmNxzB1KpTiQ_Aq9FQd-39" value="Отрегулировать положение водительского кресла" style="rounded=1;whiteSpace=wrap;html=1;fontSize=12;glass=0;strokeWidth=1;shadow=0;" vertex="1" parent="WIyWlLk6GJQsqaUBKTNV-1">
          <mxGeometry x="243" y="740" width="170" height="60" as="geometry" />
        </mxCell>
        <mxCell id="yXmNxzB1KpTiQ_Aq9FQd-48" style="edgeStyle=orthogonalEdgeStyle;rounded=0;orthogonalLoop=1;jettySize=auto;html=1;exitX=0.5;exitY=1;exitDx=0;exitDy=0;" edge="1" parent="WIyWlLk6GJQsqaUBKTNV-1" source="yXmNxzB1KpTiQ_Aq9FQd-42" target="yXmNxzB1KpTiQ_Aq9FQd-47">
          <mxGeometry relative="1" as="geometry" />
        </mxCell>
        <mxCell id="yXmNxzB1KpTiQ_Aq9FQd-42" value="Отрегулировать подголовник водительского кресла" style="rounded=1;whiteSpace=wrap;html=1;fontSize=12;glass=0;strokeWidth=1;shadow=0;" vertex="1" parent="WIyWlLk6GJQsqaUBKTNV-1">
          <mxGeometry x="243" y="840" width="170" height="60" as="geometry" />
        </mxCell>
        <mxCell id="yXmNxzB1KpTiQ_Aq9FQd-50" style="edgeStyle=orthogonalEdgeStyle;rounded=0;orthogonalLoop=1;jettySize=auto;html=1;exitX=1;exitY=0.5;exitDx=0;exitDy=0;entryX=0.5;entryY=0;entryDx=0;entryDy=0;" edge="1" parent="WIyWlLk6GJQsqaUBKTNV-1" source="yXmNxzB1KpTiQ_Aq9FQd-47" target="yXmNxzB1KpTiQ_Aq9FQd-49">
          <mxGeometry relative="1" as="geometry" />
        </mxCell>
        <mxCell id="yXmNxzB1KpTiQ_Aq9FQd-51" value="Нет" style="edgeLabel;html=1;align=center;verticalAlign=middle;resizable=0;points=[];" vertex="1" connectable="0" parent="yXmNxzB1KpTiQ_Aq9FQd-50">
          <mxGeometry x="-0.7973" y="1" relative="1" as="geometry">
            <mxPoint x="9" y="1" as="offset" />
          </mxGeometry>
        </mxCell>
        <mxCell id="yXmNxzB1KpTiQ_Aq9FQd-55" style="edgeStyle=orthogonalEdgeStyle;rounded=0;orthogonalLoop=1;jettySize=auto;html=1;exitX=0;exitY=0.5;exitDx=0;exitDy=0;entryX=0.5;entryY=0;entryDx=0;entryDy=0;" edge="1" parent="WIyWlLk6GJQsqaUBKTNV-1" source="yXmNxzB1KpTiQ_Aq9FQd-47">
          <mxGeometry relative="1" as="geometry">
            <mxPoint x="326.5" y="1140" as="targetPoint" />
            <Array as="points">
              <mxPoint x="200" y="980" />
              <mxPoint x="200" y="1120" />
              <mxPoint x="327" y="1120" />
            </Array>
          </mxGeometry>
        </mxCell>
        <mxCell id="yXmNxzB1KpTiQ_Aq9FQd-56" value="Да" style="edgeLabel;html=1;align=center;verticalAlign=middle;resizable=0;points=[];" vertex="1" connectable="0" parent="yXmNxzB1KpTiQ_Aq9FQd-55">
          <mxGeometry x="-0.9106" relative="1" as="geometry">
            <mxPoint as="offset" />
          </mxGeometry>
        </mxCell>
        <mxCell id="yXmNxzB1KpTiQ_Aq9FQd-47" value="Колеса автомобиля &lt;br&gt;стоят ровно?" style="rhombus;whiteSpace=wrap;html=1;shadow=0;fontFamily=Helvetica;fontSize=12;align=center;strokeWidth=1;spacing=6;spacingTop=-4;" vertex="1" parent="WIyWlLk6GJQsqaUBKTNV-1">
          <mxGeometry x="236.25" y="940" width="183.5" height="80" as="geometry" />
        </mxCell>
        <mxCell id="yXmNxzB1KpTiQ_Aq9FQd-54" style="edgeStyle=orthogonalEdgeStyle;rounded=0;orthogonalLoop=1;jettySize=auto;html=1;exitX=0.5;exitY=1;exitDx=0;exitDy=0;entryX=0.5;entryY=0;entryDx=0;entryDy=0;" edge="1" parent="WIyWlLk6GJQsqaUBKTNV-1" source="yXmNxzB1KpTiQ_Aq9FQd-49">
          <mxGeometry relative="1" as="geometry">
            <mxPoint x="326.5" y="1140" as="targetPoint" />
            <Array as="points">
              <mxPoint x="460" y="1120" />
              <mxPoint x="327" y="1120" />
            </Array>
          </mxGeometry>
        </mxCell>
        <mxCell id="yXmNxzB1KpTiQ_Aq9FQd-49" value="Отрегулировать колёса" style="rounded=1;whiteSpace=wrap;html=1;fontSize=12;glass=0;strokeWidth=1;shadow=0;" vertex="1" parent="WIyWlLk6GJQsqaUBKTNV-1">
          <mxGeometry x="390" y="1050" width="140" height="40" as="geometry" />
        </mxCell>
        <mxCell id="yXmNxzB1KpTiQ_Aq9FQd-60" value="Отрегулировать руль" style="rounded=1;whiteSpace=wrap;html=1;fontSize=12;glass=0;strokeWidth=1;shadow=0;" vertex="1" parent="WIyWlLk6GJQsqaUBKTNV-1">
          <mxGeometry x="250" y="1140" width="150" height="40" as="geometry" />
        </mxCell>
        <mxCell id="yXmNxzB1KpTiQ_Aq9FQd-65" style="edgeStyle=orthogonalEdgeStyle;rounded=0;orthogonalLoop=1;jettySize=auto;html=1;exitX=0.5;exitY=1;exitDx=0;exitDy=0;entryX=0.5;entryY=0;entryDx=0;entryDy=0;" edge="1" parent="WIyWlLk6GJQsqaUBKTNV-1" source="yXmNxzB1KpTiQ_Aq9FQd-61" target="yXmNxzB1KpTiQ_Aq9FQd-63">
          <mxGeometry relative="1" as="geometry" />
        </mxCell>
        <mxCell id="yXmNxzB1KpTiQ_Aq9FQd-61" value="Отрегулировать зеркала" style="rounded=1;whiteSpace=wrap;html=1;fontSize=12;glass=0;strokeWidth=1;shadow=0;" vertex="1" parent="WIyWlLk6GJQsqaUBKTNV-1">
          <mxGeometry x="250" y="1210" width="150" height="40" as="geometry" />
        </mxCell>
        <mxCell id="yXmNxzB1KpTiQ_Aq9FQd-62" style="edgeStyle=orthogonalEdgeStyle;rounded=0;orthogonalLoop=1;jettySize=auto;html=1;exitX=0.5;exitY=1;exitDx=0;exitDy=0;entryX=0.527;entryY=0.012;entryDx=0;entryDy=0;entryPerimeter=0;" edge="1" parent="WIyWlLk6GJQsqaUBKTNV-1">
          <mxGeometry relative="1" as="geometry">
            <mxPoint x="322.89" y="1180" as="sourcePoint" />
            <mxPoint x="327.102" y="1210.4800000000002" as="targetPoint" />
          </mxGeometry>
        </mxCell>
        <mxCell id="yXmNxzB1KpTiQ_Aq9FQd-67" style="edgeStyle=orthogonalEdgeStyle;rounded=0;orthogonalLoop=1;jettySize=auto;html=1;exitX=0.5;exitY=1;exitDx=0;exitDy=0;entryX=0.5;entryY=0;entryDx=0;entryDy=0;" edge="1" parent="WIyWlLk6GJQsqaUBKTNV-1" source="yXmNxzB1KpTiQ_Aq9FQd-63" target="yXmNxzB1KpTiQ_Aq9FQd-66">
          <mxGeometry relative="1" as="geometry" />
        </mxCell>
        <mxCell id="yXmNxzB1KpTiQ_Aq9FQd-63" value="Опустить зеркала" style="rounded=1;whiteSpace=wrap;html=1;fontSize=12;glass=0;strokeWidth=1;shadow=0;" vertex="1" parent="WIyWlLk6GJQsqaUBKTNV-1">
          <mxGeometry x="250" y="1280" width="150" height="30" as="geometry" />
        </mxCell>
        <mxCell id="yXmNxzB1KpTiQ_Aq9FQd-69" style="edgeStyle=orthogonalEdgeStyle;rounded=0;orthogonalLoop=1;jettySize=auto;html=1;exitX=0.5;exitY=1;exitDx=0;exitDy=0;entryX=0.5;entryY=0;entryDx=0;entryDy=0;" edge="1" parent="WIyWlLk6GJQsqaUBKTNV-1" source="yXmNxzB1KpTiQ_Aq9FQd-66" target="yXmNxzB1KpTiQ_Aq9FQd-68">
          <mxGeometry relative="1" as="geometry" />
        </mxCell>
        <mxCell id="yXmNxzB1KpTiQ_Aq9FQd-66" value="&amp;nbsp;Включить соответствующий указатель поворота" style="rounded=1;whiteSpace=wrap;html=1;fontSize=12;glass=0;strokeWidth=1;shadow=0;" vertex="1" parent="WIyWlLk6GJQsqaUBKTNV-1">
          <mxGeometry x="235" y="1350" width="180" height="50" as="geometry" />
        </mxCell>
        <mxCell id="yXmNxzB1KpTiQ_Aq9FQd-71" style="edgeStyle=orthogonalEdgeStyle;rounded=0;orthogonalLoop=1;jettySize=auto;html=1;exitX=0.5;exitY=1;exitDx=0;exitDy=0;entryX=0.5;entryY=0;entryDx=0;entryDy=0;" edge="1" parent="WIyWlLk6GJQsqaUBKTNV-1" source="yXmNxzB1KpTiQ_Aq9FQd-68" target="yXmNxzB1KpTiQ_Aq9FQd-70">
          <mxGeometry relative="1" as="geometry" />
        </mxCell>
        <mxCell id="yXmNxzB1KpTiQ_Aq9FQd-68" value="Повернуть рулевое колесо в соответствующую сторону" style="rounded=1;whiteSpace=wrap;html=1;fontSize=12;glass=0;strokeWidth=1;shadow=0;" vertex="1" parent="WIyWlLk6GJQsqaUBKTNV-1">
          <mxGeometry x="235" y="1440" width="180" height="50" as="geometry" />
        </mxCell>
        <mxCell id="yXmNxzB1KpTiQ_Aq9FQd-73" style="edgeStyle=orthogonalEdgeStyle;rounded=0;orthogonalLoop=1;jettySize=auto;html=1;exitX=0.5;exitY=1;exitDx=0;exitDy=0;entryX=0.5;entryY=0;entryDx=0;entryDy=0;" edge="1" parent="WIyWlLk6GJQsqaUBKTNV-1" source="yXmNxzB1KpTiQ_Aq9FQd-70" target="yXmNxzB1KpTiQ_Aq9FQd-72">
          <mxGeometry relative="1" as="geometry" />
        </mxCell>
        <mxCell id="yXmNxzB1KpTiQ_Aq9FQd-70" value="Переместить рычаг коробки передач на позицию &quot;D&quot; (движение вперёд)" style="rounded=1;whiteSpace=wrap;html=1;fontSize=12;glass=0;strokeWidth=1;shadow=0;" vertex="1" parent="WIyWlLk6GJQsqaUBKTNV-1">
          <mxGeometry x="235" y="1530" width="180" height="50" as="geometry" />
        </mxCell>
        <mxCell id="yXmNxzB1KpTiQ_Aq9FQd-72" value="Нажать педаль газа" style="rounded=1;whiteSpace=wrap;html=1;fontSize=12;glass=0;strokeWidth=1;shadow=0;" vertex="1" parent="WIyWlLk6GJQsqaUBKTNV-1">
          <mxGeometry x="235" y="1620" width="180" height="40" as="geometry" />
        </mxCell>
      </root>
    </mxGraphModel>
  </diagram>
</mxfile>
